<?xml version="1.0" encoding="UTF-8" standalone="no"?>
<!-- Created with Inkscape (http://www.inkscape.org/) -->

<svg
   xmlns:dc="http://purl.org/dc/elements/1.1/"
   xmlns:cc="http://creativecommons.org/ns#"
   xmlns:rdf="http://www.w3.org/1999/02/22-rdf-syntax-ns#"
   xmlns:svg="http://www.w3.org/2000/svg"
   xmlns="http://www.w3.org/2000/svg"
   xmlns:sodipodi="http://sodipodi.sourceforge.net/DTD/sodipodi-0.dtd"
   xmlns:inkscape="http://www.inkscape.org/namespaces/inkscape"
   width="45"
   height="80"
   viewBox="0 0 11.90625 21.166667"
   version="1.1"
   id="svg8"
   inkscape:version="0.92.2 (5c3e80d, 2017-08-06)"
   sodipodi:docname="water vertically.svg">
  <defs
     id="defs2" />
  <sodipodi:namedview
     id="base"
     pagecolor="#ffffff"
     bordercolor="#666666"
     borderopacity="1.0"
     inkscape:pageopacity="0.0"
     inkscape:pageshadow="2"
     inkscape:zoom="2.8"
     inkscape:cx="-94.783965"
     inkscape:cy="71.84342"
     inkscape:document-units="px"
     inkscape:current-layer="layer1"
     showgrid="false"
     units="px"
     inkscape:window-width="2560"
     inkscape:window-height="1017"
     inkscape:window-x="-8"
     inkscape:window-y="73"
     inkscape:window-maximized="1" />
  <metadata
     id="metadata5">
    <rdf:RDF>
      <cc:Work
         rdf:about="">
        <dc:format>image/svg+xml</dc:format>
        <dc:type
           rdf:resource="http://purl.org/dc/dcmitype/StillImage" />
        <dc:title></dc:title>
      </cc:Work>
    </rdf:RDF>
  </metadata>
  <g
     inkscape:label="Layer 1"
     inkscape:groupmode="layer"
     id="layer1"
     transform="translate(0,-275.83333)">
    <g
       inkscape:export-filename="D:\msvystunov\Lake Village\Png strony\Final\home.png"
       inkscape:export-ydpi="90"
       inkscape:export-xdpi="90"
       id="g3409"
       transform="matrix(0,0.88766609,-1.0050215,0,-135.3618,277.69478)">
      <path
         sodipodi:nodetypes="czzzzzzzzzc"
         inkscape:connector-curvature="0"
         id="path3401"
         d="m -1.3431142,-144.02847 c 0,0 1.34273402214,-2.03193 2.23075268,-1.9027 0.88802422,0.12923 1.27299952,1.9027 2.25700112,1.9027 0.9840016,0 1.2763437,-1.90553 2.257001,-1.9027 0.980663,0.003 1.2517617,1.90128 2.2307525,1.9027 0.9789909,0.002 1.264886,-1.90412 2.2438769,-1.9027 0.978991,0.001 1.246757,1.89706 2.230753,1.9027 0.984001,0.006 1.299242,-1.90834 2.283244,-1.9027 0.984001,0.006 1.255094,1.90412 2.230758,1.9027 0.975663,-0.001 1.240309,-1.89986 2.217634,-1.9027 0.97733,-0.003 2.243876,1.9027 2.243876,1.9027"
         style="fill:none;stroke:#214478;stroke-width:0.95300001;stroke-linecap:round;stroke-linejoin:miter;stroke-miterlimit:4;stroke-dasharray:none;stroke-opacity:1" />
      <path
         style="fill:none;stroke:#214478;stroke-width:0.95300001;stroke-linecap:round;stroke-linejoin:miter;stroke-miterlimit:4;stroke-dasharray:none;stroke-opacity:1"
         d="m -1.3431142,-141.12858 c 0,0 1.34273402214,-2.03193 2.23075268,-1.9027 0.88802422,0.12923 1.27299952,1.9027 2.25700112,1.9027 0.9840016,0 1.2763437,-1.90553 2.257001,-1.9027 0.980663,0.003 1.2517617,1.90128 2.2307525,1.9027 0.9789909,0.002 1.264886,-1.90412 2.2438769,-1.9027 0.978991,0.001 1.246757,1.89706 2.230753,1.9027 0.984001,0.006 1.299242,-1.90834 2.283244,-1.9027 0.984001,0.006 1.255094,1.90412 2.230758,1.9027 0.975663,-0.001 1.240309,-1.89986 2.217634,-1.9027 0.97733,-0.003 2.243876,1.9027 2.243876,1.9027"
         id="path3403"
         inkscape:connector-curvature="0"
         sodipodi:nodetypes="czzzzzzzzzc" />
      <path
         sodipodi:nodetypes="czzzzzzzzzc"
         inkscape:connector-curvature="0"
         id="path3405"
         d="m -1.3431142,-138.2287 c 0,0 1.34273402214,-2.03193 2.23075268,-1.9027 0.88802422,0.12923 1.27299952,1.9027 2.25700112,1.9027 0.9840016,0 1.2763437,-1.90553 2.257001,-1.9027 0.980663,0.003 1.2517617,1.90128 2.2307525,1.9027 0.9789909,0.002 1.264886,-1.90412 2.2438769,-1.9027 0.978991,0.001 1.246757,1.89706 2.230753,1.9027 0.984001,0.006 1.299242,-1.90834 2.283244,-1.9027 0.984001,0.006 1.255094,1.90412 2.230758,1.9027 0.975663,-0.001 1.240309,-1.89986 2.217634,-1.9027 0.97733,-0.003 2.243876,1.9027 2.243876,1.9027"
         style="fill:none;stroke:#214478;stroke-width:0.95300001;stroke-linecap:round;stroke-linejoin:miter;stroke-miterlimit:4;stroke-dasharray:none;stroke-opacity:1" />
      <path
         style="fill:none;stroke:#214478;stroke-width:0.95300001;stroke-linecap:round;stroke-linejoin:miter;stroke-miterlimit:4;stroke-dasharray:none;stroke-opacity:1"
         d="m -1.3431142,-135.32881 c 0,0 1.34273402214,-2.03193 2.23075268,-1.9027 0.88802422,0.12923 1.27299952,1.9027 2.25700112,1.9027 0.9840016,0 1.2763437,-1.90553 2.257001,-1.9027 0.980663,0.003 1.2517617,1.90128 2.2307525,1.9027 0.9789909,0.002 1.264886,-1.90412 2.2438769,-1.9027 0.978991,10e-4 1.246757,1.89706 2.230753,1.9027 0.984001,0.006 1.299242,-1.90834 2.283244,-1.9027 0.984001,0.006 1.255094,1.90412 2.230758,1.9027 0.975663,-0.001 1.240309,-1.89986 2.217634,-1.9027 0.97733,-0.003 2.243876,1.9027 2.243876,1.9027"
         id="path3407"
         inkscape:connector-curvature="0"
         sodipodi:nodetypes="czzzzzzzzzc" />
    </g>
  </g>
</svg>
