<?xml version="1.0" encoding="UTF-8" standalone="no"?>
<!-- Created with Inkscape (http://www.inkscape.org/) -->

<svg
   xmlns:dc="http://purl.org/dc/elements/1.1/"
   xmlns:cc="http://creativecommons.org/ns#"
   xmlns:rdf="http://www.w3.org/1999/02/22-rdf-syntax-ns#"
   xmlns:svg="http://www.w3.org/2000/svg"
   xmlns="http://www.w3.org/2000/svg"
   xmlns:sodipodi="http://sodipodi.sourceforge.net/DTD/sodipodi-0.dtd"
   xmlns:inkscape="http://www.inkscape.org/namespaces/inkscape"
   width="435"
   height="78"
   viewBox="0 0 115.09375 20.6375"
   version="1.1"
   id="svg8"
   inkscape:version="0.92.2 (5c3e80d, 2017-08-06)"
   sodipodi:docname="distribution graphic without line.svg">
  <defs
     id="defs2" />
  <sodipodi:namedview
     id="base"
     pagecolor="#ffffff"
     bordercolor="#666666"
     borderopacity="1.0"
     inkscape:pageopacity="0.0"
     inkscape:pageshadow="2"
     inkscape:zoom="2.8"
     inkscape:cx="321.07723"
     inkscape:cy="142.63503"
     inkscape:document-units="px"
     inkscape:current-layer="layer1"
     showgrid="false"
     units="px"
     inkscape:window-width="2560"
     inkscape:window-height="1017"
     inkscape:window-x="-8"
     inkscape:window-y="73"
     inkscape:window-maximized="1" />
  <metadata
     id="metadata5">
    <rdf:RDF>
      <cc:Work
         rdf:about="">
        <dc:format>image/svg+xml</dc:format>
        <dc:type
           rdf:resource="http://purl.org/dc/dcmitype/StillImage" />
        <dc:title></dc:title>
      </cc:Work>
    </rdf:RDF>
  </metadata>
  <g
     inkscape:label="Layer 1"
     inkscape:groupmode="layer"
     id="layer1"
     transform="translate(0,-276.3625)">
    <g
       inkscape:export-filename="D:\msvystunov\Lake Village\Png strony\Final\home.png"
       inkscape:export-ydpi="90"
       inkscape:export-xdpi="90"
       transform="matrix(1.0014343,0,0,0.99998238,30.544137,303.06287)"
       id="g3389">
      <g
         id="g3387"
         transform="translate(25.474301)">
        <path
           style="fill:none;stroke:#4d4d4d;stroke-width:0.76499999;stroke-linecap:butt;stroke-linejoin:round;stroke-miterlimit:4;stroke-dasharray:none;stroke-opacity:1"
           d="m -48.526237,-8.1874874 0.826823,0.00827 h 6.306043 c 0,0 -0.01611,0.1553897 0.0026,0.3715484 0.03891,0.4494637 0.228389,1.1616672 1.026403,1.2859577 1.1818,0.184065 2.39301,-3.6212777 3.97563,-3.3909682 1.58263,0.23031 2.26873,3.3909682 4.02241,3.3909682 1.75368,0 2.27469,-3.3960112 4.02241,-3.3909682 1.74773,0.005 2.23088,3.3884422 3.97563,3.3909682 1.74475,0.0025 2.25427,-3.3934942 3.99902,-3.3909682 1.74475,0.0025 2.22196,3.3809182 3.97563,3.3909682 1.75368,0.01005 2.3155,-3.4010172 4.06918,-3.3909682 1.75368,0.01005 2.23682,3.3935022 3.9756403,3.3909682 1.73882,-0.0025 2.21047,-3.3859102 3.95225,-3.3909682 1.74179,-0.0051 2.69083,3.3818022 3.99901997,3.3909682 1.3082,0.0092 2.01119003,-1.6575061 2.01119003,-1.6575061 H 15.060638"
           id="path3351"
           inkscape:connector-curvature="0"
           sodipodi:nodetypes="cccsszzzzzzzzzzcc" />
        <path
           inkscape:connector-curvature="0"
           id="path3353"
           d="m 16.1164,-16.226914 6.228244,-6.412081 6.260535,6.412081"
           style="fill:none;fill-opacity:1;stroke:#d45500;stroke-width:0.55012399;stroke-linecap:round;stroke-linejoin:miter;stroke-miterlimit:4;stroke-dasharray:none;stroke-opacity:1"
           sodipodi:nodetypes="ccc" />
        <path
           style="color:#000000;font-style:normal;font-variant:normal;font-weight:normal;font-stretch:normal;font-size:medium;line-height:normal;font-family:sans-serif;font-variant-ligatures:normal;font-variant-position:normal;font-variant-caps:normal;font-variant-numeric:normal;font-variant-alternates:normal;font-feature-settings:normal;text-indent:0;text-align:start;text-decoration:none;text-decoration-line:none;text-decoration-style:solid;text-decoration-color:#000000;letter-spacing:normal;word-spacing:normal;text-transform:none;writing-mode:lr-tb;direction:ltr;text-orientation:mixed;dominant-baseline:auto;baseline-shift:baseline;text-anchor:start;white-space:normal;shape-padding:0;clip-rule:nonzero;display:inline;overflow:visible;visibility:visible;opacity:1;isolation:auto;mix-blend-mode:normal;color-interpolation:sRGB;color-interpolation-filters:linearRGB;solid-color:#000000;solid-opacity:1;vector-effect:none;fill:#4d4d4d;fill-opacity:1;fill-rule:nonzero;stroke:none;stroke-width:1.51522577;stroke-linecap:butt;stroke-linejoin:miter;stroke-miterlimit:4;stroke-dasharray:none;stroke-dashoffset:0;stroke-opacity:1;color-rendering:auto;image-rendering:auto;shape-rendering:auto;text-rendering:auto;enable-background:accumulate"
           d="m 26.93552,-25.895359 -2.892034,2.977354 1.059026,1.084647 1.835753,-1.889712 7.029797,7.199505 v 8.6856839 h 1.515291 v -9.3026069 z"
           id="path3355"
           inkscape:connector-curvature="0" />
        <path
           style="opacity:1;fill:#4d4d4d;fill-opacity:1;stroke:none;stroke-width:3.25919986;stroke-linecap:round;stroke-linejoin:round;stroke-miterlimit:4;stroke-dasharray:none;stroke-dashoffset:0;stroke-opacity:1"
           d="m 17.232997,-24.658379 v 4.020324 h 0.90733 l 1.971123,-2.029201 v -1.991123 z"
           id="path3357"
           inkscape:connector-curvature="0" />
        <path
           inkscape:connector-curvature="0"
           id="path3359"
           d="m 19.861899,-14.671437 v 2.125793 h 2.074974 v -2.125793 z m 2.923047,0 v 2.125793 h 2.074733 v -2.125793 z m -2.923047,3.019502 v 2.1257924 h 2.074974 v -2.1257924 z m 2.923047,0 v 2.1257924 h 2.074733 v -2.1257924 z"
           style="opacity:1;fill:#4d4d4d;fill-opacity:1;stroke:none;stroke-width:1.04887688;stroke-linecap:round;stroke-linejoin:round;stroke-miterlimit:4;stroke-dasharray:none;stroke-dashoffset:0;stroke-opacity:1" />
        <path
           style="fill:none;fill-opacity:1;stroke:#4d4d4d;stroke-width:1.51522577;stroke-linecap:butt;stroke-linejoin:miter;stroke-miterlimit:4;stroke-dasharray:none;stroke-opacity:1"
           d="M 14.591863,-7.8378811 V -16.83214 l 7.748832,-7.977549 7.789021,7.977549 v 8.9942589"
           id="path3361"
           inkscape:connector-curvature="0" />
        <g
           id="g3373"
           style="stroke:#4d4d4d"
           transform="translate(672.63695,25.020777)">
          <path
             sodipodi:nodetypes="ccsssscsc"
             inkscape:connector-curvature="0"
             id="path3363"
             d="m -623.42445,-38.005647 c -0.68821,2.538793 -3.44237,1.266838 -4.72575,-0.444336 -0.57492,-0.766557 -0.78513,-2.338145 0.0496,-3.410474 0.60969,-0.783253 1.21232,-1.320095 2.16393,-2.161546 0.56043,-0.495557 1.18923,-1.644232 1.80909,-2.070831 1.81,-1.245674 3.37762,-0.787985 5.50872,0.527823 0.44308,0.273574 1.85982,1.169358 2.25525,1.564786 1.26592,1.265917 1.01888,2.166296 0.0462,3.852812 -1.14348,1.982634 -3.2898,3.543392 -5.15987,3.007051"
             style="fill:none;stroke:#2ca089;stroke-width:0.76499999;stroke-linecap:round;stroke-linejoin:miter;stroke-miterlimit:4;stroke-dasharray:none;stroke-opacity:1" />
          <path
             sodipodi:nodetypes="ccc"
             inkscape:connector-curvature="0"
             id="path3365"
             d="m -621.50622,-33.067707 v -6.581511 l 1.17409,-1.422134"
             style="fill:none;stroke:#4d4d4d;stroke-width:0.76499999;stroke-linecap:round;stroke-linejoin:miter;stroke-miterlimit:4;stroke-dasharray:none;stroke-opacity:1" />
          <path
             sodipodi:nodetypes="ccc"
             style="fill:none;stroke:#4d4d4d;stroke-width:0.76499999;stroke-linecap:round;stroke-linejoin:miter;stroke-miterlimit:4;stroke-dasharray:none;stroke-opacity:1"
             d="m -623.42445,-33.067707 v -4.93794 l -1.8475,-1.127984"
             id="path3367"
             inkscape:connector-curvature="0" />
          <path
             sodipodi:nodetypes="ccc"
             style="fill:none;stroke:#4d4d4d;stroke-width:0.76499999;stroke-linecap:round;stroke-linejoin:miter;stroke-miterlimit:4;stroke-dasharray:none;stroke-opacity:1"
             d="m -625.0264,-40.701615 1.64493,1.006921 0.008,-0.897164"
             id="path3369"
             inkscape:connector-curvature="0" />
          <path
             style="fill:none;stroke:#4d4d4d;stroke-width:0.76499999;stroke-linecap:round;stroke-linejoin:miter;stroke-miterlimit:4;stroke-dasharray:none;stroke-opacity:1"
             d="m -622.10328,-41.210554 0.76555,-1.041795"
             id="path3371"
             inkscape:connector-curvature="0"
             sodipodi:nodetypes="cc" />
        </g>
        <path
           style="fill:none;stroke:#4d4d4d;stroke-width:0.76499999;stroke-linecap:butt;stroke-linejoin:miter;stroke-miterlimit:4;stroke-dasharray:none;stroke-opacity:1"
           d="M 29.401823,-8.013857 35.884114,-8.04693 H 49.2125"
           id="path3375"
           inkscape:connector-curvature="0"
           sodipodi:nodetypes="ccc" />
        <path
           sodipodi:nodetypes="csszzzzzzzzzssc"
           inkscape:connector-curvature="0"
           id="path3377"
           d="m -41.393371,-8.1792174 c 0.0024,0.046972 0.003,0.3832292 0.0092,0.437298 0.05167,0.4500601 0.259689,1.1018191 1.019788,1.2202043 1.1818,0.184065 2.39301,-3.6212779 3.97563,-3.3909682 1.58263,0.23031 2.26873,3.3909682 4.02241,3.3909682 1.75368,0 2.27469,-3.3960112 4.02241,-3.3909682 1.74773,0.005 2.23088,3.3884422 3.97563,3.3909682 1.74475,0.0025 2.25427,-3.3934942 3.99902,-3.3909682 1.74475,0.0025 2.22196,3.3809182 3.97563,3.3909682 1.75368,0.01005 2.3155,-3.4010172 4.06918,-3.3909682 1.75368,0.01005 2.23682,3.3935022 3.9756403,3.3909682 1.73882,-0.0025 2.21047,-3.3859102 3.95225,-3.3909682 1.74179,-0.0051 2.6908302,3.3817683 3.99901997,3.3909682 1.09988214,0.00773 1.77195513,-1.1691899 1.95810683,-1.5442133 0.035257,-0.071029 0.053083,-0.113289 0.053083,-0.113289"
           style="fill:none;stroke:#214478;stroke-width:0.76499999;stroke-linecap:round;stroke-linejoin:miter;stroke-miterlimit:4;stroke-dasharray:none;stroke-opacity:1" />
        <path
           sodipodi:nodetypes="caaaaaaac"
           inkscape:connector-curvature="0"
           id="path3379"
           d="m -50.086803,-14.224332 c -0.68821,2.538793 -3.68225,0.744978 -4.72575,-0.444336 -1.28867,-1.468745 -0.35869,-3.99004 0.21496,-5.85787 0.32593,-1.061224 0.9632,-2.057338 1.76706,-2.823004 1.10439,-1.051921 2.47107,-2.120931 3.9919,-2.236196 2.24948,-0.17049 5.06236,0.517586 6.33554,2.379907 0.92907,1.358969 0.002,3.293189 -0.0598,4.938223 -0.05,1.330071 0.6372,2.994205 -0.25146,3.985104 -1.20282,1.341217 -3.45516,1.459798 -5.32523,0.923457"
           style="fill:none;stroke:#2ca089;stroke-width:0.76499999;stroke-linecap:round;stroke-linejoin:miter;stroke-miterlimit:4;stroke-dasharray:none;stroke-opacity:1" />
        <path
           sodipodi:nodetypes="ccc"
           inkscape:connector-curvature="0"
           id="path3381"
           d="m -50.057813,-8.421107 v -6.581511 l -1.17409,-1.422134"
           style="fill:none;stroke:#4d4d4d;stroke-width:0.76499999;stroke-linecap:round;stroke-linejoin:miter;stroke-miterlimit:4;stroke-dasharray:none;stroke-opacity:1" />
        <path
           sodipodi:nodetypes="ccc"
           style="fill:none;stroke:#4d4d4d;stroke-width:0.76499999;stroke-linecap:round;stroke-linejoin:miter;stroke-miterlimit:4;stroke-dasharray:none;stroke-opacity:1"
           d="m -48.139583,-8.421107 v -4.93794 l 1.8475,-1.127984"
           id="path3383"
           inkscape:connector-curvature="0" />
        <path
           sodipodi:nodetypes="ccc"
           style="fill:none;stroke:#4d4d4d;stroke-width:0.76499999;stroke-linecap:round;stroke-linejoin:miter;stroke-miterlimit:4;stroke-dasharray:none;stroke-opacity:1"
           d="m -46.537633,-16.055015 -1.64493,1.006921 -0.008,-0.897164"
           id="path3385"
           inkscape:connector-curvature="0" />
      </g>
    </g>
  </g>
</svg>
