<?xml version="1.0" encoding="UTF-8" standalone="no"?>
<!-- Created with Inkscape (http://www.inkscape.org/) -->

<svg
   xmlns:dc="http://purl.org/dc/elements/1.1/"
   xmlns:cc="http://creativecommons.org/ns#"
   xmlns:rdf="http://www.w3.org/1999/02/22-rdf-syntax-ns#"
   xmlns:svg="http://www.w3.org/2000/svg"
   xmlns="http://www.w3.org/2000/svg"
   xmlns:sodipodi="http://sodipodi.sourceforge.net/DTD/sodipodi-0.dtd"
   xmlns:inkscape="http://www.inkscape.org/namespaces/inkscape"
   width="27"
   height="27"
   viewBox="0 0 7.14375 7.1437501"
   version="1.1"
   id="svg8"
   inkscape:version="0.92.2 (5c3e80d, 2017-08-06)"
   sodipodi:docname="phone icon.svg">
  <defs
     id="defs2" />
  <sodipodi:namedview
     id="base"
     pagecolor="#ffffff"
     bordercolor="#666666"
     borderopacity="1.0"
     inkscape:pageopacity="0.0"
     inkscape:pageshadow="2"
     inkscape:zoom="7.9195959"
     inkscape:cx="-7.6965311"
     inkscape:cy="21.774513"
     inkscape:document-units="px"
     inkscape:current-layer="layer1"
     showgrid="false"
     units="px"
     inkscape:window-width="2560"
     inkscape:window-height="1017"
     inkscape:window-x="-8"
     inkscape:window-y="73"
     inkscape:window-maximized="1" />
  <metadata
     id="metadata5">
    <rdf:RDF>
      <cc:Work
         rdf:about="">
        <dc:format>image/svg+xml</dc:format>
        <dc:type
           rdf:resource="http://purl.org/dc/dcmitype/StillImage" />
        <dc:title></dc:title>
      </cc:Work>
    </rdf:RDF>
  </metadata>
  <g
     inkscape:label="Layer 1"
     inkscape:groupmode="layer"
     id="layer1"
     transform="translate(0,-289.85624)">
    <g
       style="fill:#d45500"
       transform="matrix(0.01144183,0,0,0.01144183,0.34852754,284.47132)"
       id="g3015">
      <g
         style="fill:#d45500"
         id="g2983">
        <g
           style="fill:#d45500"
           id="g2981">
          <path
             inkscape:connector-curvature="0"
             style="fill:#d45500"
             d="m 577.83,945.72759 c 1.225,9.385 -1.635,17.545 -8.568,24.48 l -81.396,80.78101 c -3.672,4.08 -8.465,7.551 -14.381,10.404 -5.916,2.857 -11.729,4.693 -17.439,5.508 -0.408,0 -1.635,0.105 -3.676,0.309 -2.037,0.203 -4.689,0.307 -7.953,0.307 -7.754,0 -20.301,-1.326 -37.641,-3.979 -17.34,-2.653 -38.555,-9.182 -63.645,-19.584 -25.096,-10.404 -53.553,-26.012 -85.376,-46.81801 -31.823,-20.805 -65.688,-49.367 -101.592,-85.68 -28.56,-28.152 -52.224,-55.08 -70.992,-80.783 -18.768,-25.705 -33.864,-49.471 -45.288,-71.299 -11.425,-21.828 -19.993,-41.616 -25.705,-59.364 -5.712,-17.748 -9.588,-33.048 -11.628,-45.9 -2.04,-12.852 -2.856,-22.95 -2.448,-30.294 0.408,-7.344 0.612,-11.424 0.612,-12.24 0.816,-5.712 2.652,-11.526 5.508,-17.442 2.856,-5.916 6.324,-10.71 10.404,-14.382 l 81.396,-81.396 c 5.712,-5.712 12.24,-8.568 19.584,-8.568 5.304,0 9.996,1.53 14.076,4.59 4.08,3.06 7.548,6.834 10.404,11.322 l 65.484,124.236 c 3.672,6.528 4.692,13.668 3.06,21.42 -1.632,7.752 -5.1,14.28 -10.404,19.584 l -29.988,29.988 c -0.816,0.816 -1.53,2.142 -2.142,3.978 -0.612,1.836 -0.918,3.366 -0.918,4.59 1.632,8.568 5.304,18.36 11.016,29.376 4.896,9.792 12.444,21.726 22.644,35.802 10.2,14.076 24.684,30.293 43.452,48.653 18.36,18.77 34.68,33.354 48.96,43.76 14.277,10.4 26.215,18.053 35.803,22.949 9.588,4.896 16.932,7.854 22.031,8.871 l 7.648,1.531 c 0.816,0 2.145,-0.307 3.979,-0.918 1.836,-0.613 3.162,-1.326 3.979,-2.143 l 34.883,-35.496 c 7.348,-6.527 15.912,-9.791 25.705,-9.791 6.938,0 12.443,1.223 16.523,3.672 h 0.611 l 118.115,69.768 c 8.571,5.308 13.67,12.038 15.303,20.198 z"
             id="path2979" />
        </g>
      </g>
      <g
         style="fill:#d45500"
         id="g2985" />
      <g
         style="fill:#d45500"
         id="g2987" />
      <g
         style="fill:#d45500"
         id="g2989" />
      <g
         style="fill:#d45500"
         id="g2991" />
      <g
         style="fill:#d45500"
         id="g2993" />
      <g
         style="fill:#d45500"
         id="g2995" />
      <g
         style="fill:#d45500"
         id="g2997" />
      <g
         style="fill:#d45500"
         id="g2999" />
      <g
         style="fill:#d45500"
         id="g3001" />
      <g
         style="fill:#d45500"
         id="g3003" />
      <g
         style="fill:#d45500"
         id="g3005" />
      <g
         style="fill:#d45500"
         id="g3007" />
      <g
         style="fill:#d45500"
         id="g3009" />
      <g
         style="fill:#d45500"
         id="g3011" />
      <g
         style="fill:#d45500"
         id="g3013" />
    </g>
  </g>
</svg>
