<?xml version="1.0" encoding="UTF-8" standalone="no"?>
<!-- Created with Inkscape (http://www.inkscape.org/) -->

<svg
   xmlns:dc="http://purl.org/dc/elements/1.1/"
   xmlns:cc="http://creativecommons.org/ns#"
   xmlns:rdf="http://www.w3.org/1999/02/22-rdf-syntax-ns#"
   xmlns:svg="http://www.w3.org/2000/svg"
   xmlns="http://www.w3.org/2000/svg"
   xmlns:sodipodi="http://sodipodi.sourceforge.net/DTD/sodipodi-0.dtd"
   xmlns:inkscape="http://www.inkscape.org/namespaces/inkscape"
   width="145"
   height="243"
   viewBox="0 0 38.364583 64.293751"
   version="1.1"
   id="svg8"
   inkscape:version="0.92.2 (5c3e80d, 2017-08-06)"
   sodipodi:docname="Logo.svg">
  <defs
     id="defs2" />
  <sodipodi:namedview
     id="base"
     pagecolor="#ffffff"
     bordercolor="#666666"
     borderopacity="1.0"
     inkscape:pageopacity="0.0"
     inkscape:pageshadow="2"
     inkscape:zoom="1.4"
     inkscape:cx="14.256544"
     inkscape:cy="212.11505"
     inkscape:document-units="mm"
     inkscape:current-layer="layer1"
     showgrid="false"
     units="px"
     inkscape:window-width="2560"
     inkscape:window-height="1017"
     inkscape:window-x="-8"
     inkscape:window-y="73"
     inkscape:window-maximized="1" />
  <metadata
     id="metadata5">
    <rdf:RDF>
      <cc:Work
         rdf:about="">
        <dc:format>image/svg+xml</dc:format>
        <dc:type
           rdf:resource="http://purl.org/dc/dcmitype/StillImage" />
        <dc:title></dc:title>
      </cc:Work>
    </rdf:RDF>
  </metadata>
  <g
     inkscape:label="Layer 1"
     inkscape:groupmode="layer"
     id="layer1"
     transform="translate(0,-232.70624)">
    <g
       inkscape:export-filename="D:\msvystunov\Lake Village\Png strony\Final\home.png"
       inkscape:export-ydpi="90"
       inkscape:export-xdpi="90"
       transform="matrix(0.41410152,0,0,0.41410152,157.02487,572.86773)"
       id="g19622">
      <path
         style="fill:#162d50;stroke-width:0.30042097"
         d="m -326.4403,-734.82642 c -0.7034,-0.093 -1.7396,-0.24487 -2.3024,-0.33751 -0.5629,-0.0926 -1.7718,-0.25312 -2.6864,-0.35664 -5.9289,-0.73523 -11.789,-1.59229 -17.7442,-1.73571 -3.9995,0.12715 -8.3893,-0.17774 -2.6922,-0.87969 5.6971,-0.70195 19.1006,-1.13891 28.3673,-0.26579 0.9146,0.12339 2.9623,0.31468 4.5504,0.42507 1.5882,0.1104 3.0272,0.26234 3.198,0.33765 0.1707,0.0753 1.1163,0.22833 2.1013,0.34005 2.2654,0.25696 3.8549,0.49833 4.9641,0.75383 0.479,0.11031 1.3424,0.2751 1.9188,0.36618 1.4365,0.22702 6.93,1.5078 8.3393,1.94426 0.6331,0.1961 1.439,0.41812 1.7908,0.49337 1.1071,0.23684 2.1325,0.5153 3.4538,0.93789 0.6342,0.11713 4.1585,1.45617 4.2212,1.04527 -8.2932,-5.15431 -19.0096,-5.97921 -26.9697,-7.9378 2.0259,-0.337 9.1143,0.0177 5.5836,-0.74653 -11.8122,-2.16709 -25.3671,-2.54087 -36.3047,-1.45095 -5.8359,0.38653 -12.0318,1.37871 -17.6524,2.50114 -1.4999,0.0314 -14.183,2.71851 -13.1845,4.56806 29.0776,-0.32279 48.2744,1.70448 67.5892,7.14637 0,0.2085 -4.1949,0.0726 -7.5231,0.0672 -5.8829,-0.01 -7.6421,0.19627 -5.9482,0.69577 0.4222,0.12447 0.7388,0.3835 0.7036,0.57562 -0.067,0.36682 -0.9313,0.27075 -2.9931,0.52605 -2.0618,0.2553 -3.7431,0.40917 -5.7776,0.53596 -1.5719,0.0946 -2.9824,0.2782 -3.1347,0.40792 13.1973,0.97905 25.4216,1.16394 38.3545,0.73753 17.3943,-0.009 -24.1963,-9.58196 -30.2227,-10.69457 z m -11.3846,10.44579 c 0,-0.18313 -0.4279,-0.23954 -0.9593,-0.12645 -1.3284,0.28267 -1.3691,0.45705 -0.1066,0.45705 0.5862,0 1.0659,-0.14877 1.0659,-0.3306 z m 2.5289,-0.34239 c 0.2166,-0.18916 -0.1314,-0.23736 -0.8955,-0.12404 -0.6873,0.10194 -1.2976,0.24361 -1.3562,0.3148 -0.2317,0.28123 1.92,0.099 2.2517,-0.19076 z m 10.7745,-2.43117 c 0,-0.15507 -0.403,-0.21707 -0.8954,-0.13779 -0.4925,0.0793 -0.8954,0.20615 -0.8954,0.28194 0,0.0758 0.4029,0.13779 0.8954,0.13779 0.4924,0 0.8954,-0.12687 0.8954,-0.28194 z m 36.8994,-4.01082 c -0.1487,-0.205 -0.4214,-0.30332 -0.6059,-0.21848 -0.1916,0.0881 -0.076,0.24798 0.2704,0.37273 0.4255,0.15345 0.5254,0.10753 0.3355,-0.15425 z m -19.5027,-8.73548 c 0,-0.16872 -0.4029,-0.30676 -0.8954,-0.30676 -1.1673,0 -1.1673,0.50658 0,0.5671 0.4925,0.0255 0.8954,-0.0916 0.8954,-0.26034 z"
         id="path19596"
         inkscape:connector-curvature="0"
         sodipodi:nodetypes="cccczcccccccccccccccccsczccccscssccccscsssccccsscs" />
      <g
         id="g19606"
         transform="matrix(2.4385969,0,0,2.4385969,-2438.6825,-1484.5386)"
         style="fill:#4d4d4d"
         inkscape:export-xdpi="90"
         inkscape:export-ydpi="90">
        <text
           xml:space="preserve"
           style="font-style:normal;font-variant:normal;font-weight:normal;font-stretch:normal;font-size:15.2902956px;line-height:1.25;font-family:sans-serif;-inkscape-font-specification:sans-serif;letter-spacing:0px;word-spacing:0px;fill:#4d4d4d;fill-opacity:1;stroke:none;stroke-width:0.3822574"
           x="940.33679"
           y="292.11615"
           id="text19600"
           transform="scale(0.8973448,1.1143988)"><tspan
             sodipodi:role="line"
             id="tspan19598"
             x="940.33679"
             y="292.11615"
             style="font-style:normal;font-variant:normal;font-weight:bold;font-stretch:normal;font-family:sans-serif;-inkscape-font-specification:'sans-serif Bold';fill:#4d4d4d;stroke-width:0.3822574">LAKE</tspan></text>
        <text
           xml:space="preserve"
           style="font-style:normal;font-variant:normal;font-weight:normal;font-stretch:normal;font-size:9.81540012px;line-height:1.25;font-family:'Helvetica Narrow';-inkscape-font-specification:'Helvetica Narrow';letter-spacing:0px;word-spacing:0px;fill:#4d4d4d;fill-opacity:1;stroke:none;stroke-width:0.24538501"
           x="946.35321"
           y="299.44315"
           id="text19604"
           transform="scale(0.8929193,1.119922)"><tspan
             sodipodi:role="line"
             id="tspan19602"
             x="946.35321"
             y="299.44315"
             style="font-style:normal;font-variant:normal;font-weight:normal;font-stretch:normal;font-family:sans-serif;-inkscape-font-specification:sans-serif;fill:#4d4d4d;stroke-width:0.24538501">VILLAGE</tspan></text>
      </g>
      <g
         id="g19620"
         transform="translate(-3203.8986,-755.04057)">
        <path
           sodipodi:nodetypes="ccc"
           style="fill:none;fill-opacity:1;stroke:#d45500;stroke-width:2.28470016;stroke-linecap:round;stroke-linejoin:miter;stroke-miterlimit:4;stroke-dasharray:none;stroke-opacity:1"
           d="m 2835.8844,-25.217454 25.8663,-26.629785 26.0004,26.629785"
           id="path19608"
           inkscape:connector-curvature="0" />
        <path
           inkscape:connector-curvature="0"
           id="path19610"
           d="m 2880.8169,-65.37113 -12.0108,12.365143 4.3982,4.504611 7.624,-7.848097 29.1952,29.900006 V 9.6227364 h 6.2931 V -29.011586 Z"
           style="color:#000000;font-style:normal;font-variant:normal;font-weight:normal;font-stretch:normal;font-size:medium;line-height:normal;font-family:sans-serif;font-variant-ligatures:normal;font-variant-position:normal;font-variant-caps:normal;font-variant-numeric:normal;font-variant-alternates:normal;font-feature-settings:normal;text-indent:0;text-align:start;text-decoration:none;text-decoration-line:none;text-decoration-style:solid;text-decoration-color:#000000;letter-spacing:normal;word-spacing:normal;text-transform:none;writing-mode:lr-tb;direction:ltr;text-orientation:mixed;dominant-baseline:auto;baseline-shift:baseline;text-anchor:start;white-space:normal;shape-padding:0;clip-rule:nonzero;display:inline;overflow:visible;visibility:visible;opacity:1;isolation:auto;mix-blend-mode:normal;color-interpolation:sRGB;color-interpolation-filters:linearRGB;solid-color:#000000;solid-opacity:1;vector-effect:none;fill:#4d4d4d;fill-opacity:1;fill-rule:nonzero;stroke:none;stroke-width:6.29282999;stroke-linecap:butt;stroke-linejoin:miter;stroke-miterlimit:4;stroke-dasharray:none;stroke-dashoffset:0;stroke-opacity:1;color-rendering:auto;image-rendering:auto;shape-rendering:auto;text-rendering:auto;enable-background:accumulate" />
        <path
           inkscape:connector-curvature="0"
           id="path19612"
           d="m 2840.5217,-60.23387 v 16.696664 h 3.7682 l 8.1862,-8.427404 v -8.26926 z"
           style="opacity:1;fill:#4d4d4d;fill-opacity:1;stroke:none;stroke-width:13.53566647;stroke-linecap:round;stroke-linejoin:round;stroke-miterlimit:4;stroke-dasharray:none;stroke-dashoffset:0;stroke-opacity:1" />
        <path
           style="opacity:1;fill:#4d4d4d;fill-opacity:1;stroke:none;stroke-width:4.35605288;stroke-linecap:round;stroke-linejoin:round;stroke-miterlimit:4;stroke-dasharray:none;stroke-dashoffset:0;stroke-opacity:1"
           d="m 2851.4397,-18.75746 v 8.8285553 h 8.6175 V -18.75746 Z m 12.1396,0 v 8.8285553 h 8.6165 V -18.75746 Z m -12.1396,12.5401848 v 8.8285533 h 8.6175 v -8.8285533 z m 12.1396,0 v 8.8285533 h 8.6165 v -8.8285533 z"
           id="path19614"
           inkscape:connector-curvature="0" />
        <path
           sodipodi:nodetypes="ccccccc"
           inkscape:connector-curvature="0"
           id="path19616"
           d="m 2880.8283,-54.034369 -7.3996,7.195953 1.5965,1.635045 5.8068,-5.555747 25.1799,25.789122 c 1.063,1.138107 2.7468,-0.505709 1.6346,-1.595755 z"
           style="color:#000000;font-style:normal;font-variant:normal;font-weight:normal;font-stretch:normal;font-size:medium;line-height:normal;font-family:sans-serif;font-variant-ligatures:normal;font-variant-position:normal;font-variant-caps:normal;font-variant-numeric:normal;font-variant-alternates:normal;font-feature-settings:normal;text-indent:0;text-align:start;text-decoration:none;text-decoration-line:none;text-decoration-style:solid;text-decoration-color:#000000;letter-spacing:normal;word-spacing:normal;text-transform:none;writing-mode:lr-tb;direction:ltr;text-orientation:mixed;dominant-baseline:auto;baseline-shift:baseline;text-anchor:start;white-space:normal;shape-padding:0;clip-rule:nonzero;display:inline;overflow:visible;visibility:visible;opacity:1;isolation:auto;mix-blend-mode:normal;color-interpolation:sRGB;color-interpolation-filters:linearRGB;solid-color:#000000;solid-opacity:1;vector-effect:none;fill:#d45500;fill-opacity:1;fill-rule:nonzero;stroke:none;stroke-width:2.28470016;stroke-linecap:round;stroke-linejoin:miter;stroke-miterlimit:4;stroke-dasharray:none;stroke-dashoffset:0;stroke-opacity:1;color-rendering:auto;image-rendering:auto;shape-rendering:auto;text-rendering:auto;enable-background:accumulate" />
        <path
           inkscape:connector-curvature="0"
           id="path19618"
           d="M 2829.5529,9.6227364 V -27.730996 l 32.1814,-33.131274 32.3483,33.131274 V 9.6227364"
           style="fill:none;fill-opacity:1;stroke:#4d4d4d;stroke-width:6.29282999;stroke-linecap:butt;stroke-linejoin:miter;stroke-miterlimit:4;stroke-dasharray:none;stroke-opacity:1" />
      </g>
    </g>
  </g>
</svg>
