<?xml version="1.0" encoding="UTF-8" standalone="no"?>
<!-- Created with Inkscape (http://www.inkscape.org/) -->

<svg
   xmlns:dc="http://purl.org/dc/elements/1.1/"
   xmlns:cc="http://creativecommons.org/ns#"
   xmlns:rdf="http://www.w3.org/1999/02/22-rdf-syntax-ns#"
   xmlns:svg="http://www.w3.org/2000/svg"
   xmlns="http://www.w3.org/2000/svg"
   xmlns:sodipodi="http://sodipodi.sourceforge.net/DTD/sodipodi-0.dtd"
   xmlns:inkscape="http://www.inkscape.org/namespaces/inkscape"
   width="27"
   height="27"
   viewBox="0 0 7.14375 7.1437501"
   version="1.1"
   id="svg8"
   inkscape:version="0.92.2 (5c3e80d, 2017-08-06)"
   sodipodi:docname="clockl icon.svg">
  <defs
     id="defs2">
    <pattern
       y="0"
       x="0"
       height="6"
       width="6"
       patternUnits="userSpaceOnUse"
       id="EMFhbasepattern" />
  </defs>
  <sodipodi:namedview
     id="base"
     pagecolor="#ffffff"
     bordercolor="#666666"
     borderopacity="1.0"
     inkscape:pageopacity="0.0"
     inkscape:pageshadow="2"
     inkscape:zoom="7.9195959"
     inkscape:cx="-7.6965311"
     inkscape:cy="21.774513"
     inkscape:document-units="px"
     inkscape:current-layer="layer1"
     showgrid="false"
     units="px"
     inkscape:window-width="2560"
     inkscape:window-height="1017"
     inkscape:window-x="-8"
     inkscape:window-y="73"
     inkscape:window-maximized="1" />
  <metadata
     id="metadata5">
    <rdf:RDF>
      <cc:Work
         rdf:about="">
        <dc:format>image/svg+xml</dc:format>
        <dc:type
           rdf:resource="http://purl.org/dc/dcmitype/StillImage" />
        <dc:title></dc:title>
      </cc:Work>
    </rdf:RDF>
  </metadata>
  <g
     inkscape:label="Layer 1"
     inkscape:groupmode="layer"
     id="layer1"
     transform="translate(0,-289.85624)">
    <path
       style="fill:#4d4d4d;stroke-width:0.02204898"
       inkscape:connector-curvature="0"
       d="m 3.6080835,290.18479 c -1.826516,0 -3.30723695,1.48077 -3.30723695,3.30724 0,1.82647 1.48072095,3.30734 3.30723695,3.30734 1.826516,0 3.3073471,-1.48087 3.3073471,-3.30734 0,-1.82647 -1.4808311,-3.30724 -3.3073471,-3.30724 z m 1.42981,3.93627 h -1.402138 c -0.0047,0 -0.0091,-10e-4 -0.01385,-10e-4 -0.0047,2.2e-4 -0.0091,10e-4 -0.01385,10e-4 -0.126319,0 -0.228736,-0.10242 -0.228736,-0.22873 v -2.33501 c 0,-0.12632 0.102417,-0.22874 0.228736,-0.22874 0.126318,0 0.228736,0.10242 0.228736,0.22874 v 2.10627 h 1.201008 c 0.126318,0 0.228736,0.10242 0.228736,0.22874 0,0.12631 -0.102329,0.22873 -0.228648,0.22873 z"
       id="path3265" />
  </g>
</svg>
