<?xml version="1.0" encoding="UTF-8" standalone="no"?>
<!-- Created with Inkscape (http://www.inkscape.org/) -->

<svg
   xmlns:dc="http://purl.org/dc/elements/1.1/"
   xmlns:cc="http://creativecommons.org/ns#"
   xmlns:rdf="http://www.w3.org/1999/02/22-rdf-syntax-ns#"
   xmlns:svg="http://www.w3.org/2000/svg"
   xmlns="http://www.w3.org/2000/svg"
   xmlns:sodipodi="http://sodipodi.sourceforge.net/DTD/sodipodi-0.dtd"
   xmlns:inkscape="http://www.inkscape.org/namespaces/inkscape"
   width="27"
   height="27"
   viewBox="0 0 7.14375 7.1437501"
   version="1.1"
   id="svg8"
   inkscape:version="0.92.2 (5c3e80d, 2017-08-06)"
   sodipodi:docname="phone  icon.svg">
  <defs
     id="defs2" />
  <sodipodi:namedview
     id="base"
     pagecolor="#ffffff"
     bordercolor="#666666"
     borderopacity="1.0"
     inkscape:pageopacity="0.0"
     inkscape:pageshadow="2"
     inkscape:zoom="7.9195959"
     inkscape:cx="-7.6965311"
     inkscape:cy="21.774513"
     inkscape:document-units="px"
     inkscape:current-layer="layer1"
     showgrid="false"
     units="px"
     inkscape:window-width="2560"
     inkscape:window-height="1017"
     inkscape:window-x="-8"
     inkscape:window-y="73"
     inkscape:window-maximized="1" />
  <metadata
     id="metadata5">
    <rdf:RDF>
      <cc:Work
         rdf:about="">
        <dc:format>image/svg+xml</dc:format>
        <dc:type
           rdf:resource="http://purl.org/dc/dcmitype/StillImage" />
        <dc:title></dc:title>
      </cc:Work>
    </rdf:RDF>
  </metadata>
  <g
     inkscape:label="Layer 1"
     inkscape:groupmode="layer"
     id="layer1"
     transform="translate(0,-289.85624)">
    <path
       id="path3171"
       d="m 6.9790963,295.30302 c 0.014015,0.10738 -0.018709,0.20074 -0.098034,0.28009 l -0.9313191,0.92429 c -0.042015,0.0467 -0.096855,0.0864 -0.1645449,0.11904 -0.06769,0.0327 -0.1342014,0.0537 -0.1995342,0.063 -0.00467,0 -0.018709,0.001 -0.04206,0.004 -0.023307,0.002 -0.053651,0.004 -0.090997,0.004 -0.08872,0 -0.2322806,-0.0152 -0.4306819,-0.0455 -0.1984012,-0.0304 -0.4411398,-0.10506 -0.7282151,-0.22408 -0.2871439,-0.11904 -0.6127439,-0.29762 -0.9768579,-0.53568 -0.364113,-0.23805 -0.751591,-0.56485 -1.162398,-0.98034 -0.326779,-0.32211 -0.597538,-0.63021 -0.812279,-0.9243 -0.21474,-0.29411 -0.38746604,-0.56604 -0.51817704,-0.81579 -0.130723,-0.24976 -0.228757,-0.47617 -0.294112,-0.67924 -0.06536,-0.20307 -0.109705,-0.37813 -0.133046,-0.52518 -0.02334,-0.14705 -0.03268,-0.26259 -0.02801,-0.34661 0.0047,-0.084 0.007,-0.13072 0.007,-0.14005 0.0093,-0.0654 0.03034,-0.13188 0.06302,-0.19957 0.03268,-0.0677 0.07236,-0.12254 0.119041,-0.16456 l 0.93132004,-0.93228 c 0.06536,-0.0654 0.140048,-0.098 0.224076,-0.098 0.06069,0 0.114373,0.0175 0.161056,0.0525 0.04668,0.035 0.08636,0.0782 0.11904,0.12954 l 0.749257,1.42149 c 0.04201,0.0747 0.05368,0.15639 0.03501,0.24508 -0.01867,0.0887 -0.05835,0.16339 -0.119041,0.22408 l -0.343117,0.34312 c -0.0093,0.009 -0.01751,0.0245 -0.02451,0.0455 -0.007,0.021 -0.0105,0.0385 -0.0105,0.0525 0.01867,0.098 0.06069,0.21007 0.126043,0.33612 0.05602,0.11204 0.142382,0.24858 0.259089,0.40964 0.116706,0.16105 0.28243,0.3466 0.49717,0.55668 0.210072,0.21476 0.396803,0.38163 0.560192,0.50069 0.163355,0.119 0.299948,0.20656 0.409652,0.26258 0.109704,0.056 0.1937331,0.0899 0.2520751,0.1015 l 0.087507,0.0175 c 0.00934,0 0.024543,-0.004 0.045527,-0.0105 0.021008,-0.007 0.036179,-0.0152 0.045527,-0.0245 l 0.3991253,-0.40614 c 0.084074,-0.0747 0.1820624,-0.11203 0.2941121,-0.11203 0.079383,0 0.1423707,0.014 0.1890535,0.042 h 0.00699 l 1.3514518,0.79828 c 0.098068,0.0607 0.1564097,0.13773 0.1750943,0.2311 z"
       style="fill:#4d4d4d;stroke-width:0.01144183"
       inkscape:connector-curvature="0" />
  </g>
</svg>
